<svg width="332" height="195" viewBox="0 0 332 195" fill="none" xmlns="http://www.w3.org/2000/svg">
<g clip-path="url(#clip0_19_2)">
<path d="M365.2 -19.5H-33.2V214.5H365.2V-19.5Z" fill="white"/>
<path d="M118.335 172.615V139.865H127.835C131.569 139.865 134.694 140.511 137.21 141.803C139.736 143.094 141.647 144.98 142.939 147.449C144.231 149.923 144.876 152.938 144.876 156.49C144.876 159.897 144.215 162.798 142.897 165.199C141.574 167.589 139.647 169.423 137.106 170.699C134.574 171.98 131.47 172.615 127.793 172.615H118.335ZM124.231 167.219H127.21C129.027 167.219 130.658 167.032 132.106 166.657C133.564 166.272 134.798 165.652 135.814 164.803C136.84 163.943 137.626 162.813 138.168 161.407C138.72 159.99 139.001 158.272 139.001 156.24C139.001 153.647 138.626 151.542 137.876 149.928C137.126 148.318 135.923 147.136 134.272 146.386C132.616 145.636 130.444 145.261 127.751 145.261H124.231V167.219Z" fill="#201F1F"/>
<path d="M164.482 173.074C162.315 173.074 160.378 172.782 158.669 172.199C156.961 171.615 155.482 170.798 154.232 169.74C152.982 168.673 151.94 167.428 151.107 166.011C150.284 164.594 149.675 163.063 149.274 161.407C148.867 159.74 148.669 158.022 148.669 156.24C148.669 154.449 148.867 152.73 149.274 151.074C149.675 149.423 150.284 147.886 151.107 146.469C151.94 145.042 152.982 143.798 154.232 142.74C155.482 141.673 156.961 140.844 158.669 140.261C160.378 139.678 162.315 139.386 164.482 139.386C166.649 139.386 168.576 139.678 170.274 140.261C171.982 140.844 173.461 141.673 174.711 142.74C175.972 143.798 177.013 145.042 177.836 146.469C178.669 147.886 179.279 149.423 179.669 151.074C180.07 152.73 180.274 154.449 180.274 156.24C180.274 158.022 180.07 159.74 179.669 161.407C179.279 163.063 178.669 164.594 177.836 166.011C177.013 167.428 175.972 168.673 174.711 169.74C173.461 170.798 171.982 171.615 170.274 172.199C168.576 172.782 166.649 173.074 164.482 173.074ZM164.482 167.865C166.242 167.865 167.732 167.553 168.94 166.928C170.159 166.303 171.149 165.449 171.899 164.365C172.649 163.282 173.195 162.048 173.544 160.657C173.888 159.256 174.065 157.782 174.065 156.24C174.065 154.688 173.888 153.214 173.544 151.824C173.195 150.438 172.649 149.199 171.899 148.115C171.149 147.032 170.159 146.178 168.94 145.553C167.732 144.928 166.242 144.615 164.482 144.615C162.716 144.615 161.222 144.928 160.003 145.553C158.779 146.178 157.794 147.032 157.044 148.115C156.294 149.199 155.742 150.438 155.399 151.824C155.05 153.214 154.878 154.688 154.878 156.24C154.878 157.782 155.05 159.256 155.399 160.657C155.742 162.048 156.294 163.282 157.044 164.365C157.794 165.449 158.779 166.303 160.003 166.928C161.222 167.553 162.716 167.865 164.482 167.865Z" fill="#201F1F"/>
<path d="M186.386 172.615V139.865H192.282V172.615H186.386Z" fill="#201F1F"/>
<path d="M207.227 172.615V145.136H196.956V139.865H223.352V145.136H213.122V172.615H207.227Z" fill="#201F1F"/>
<path d="M234.141 81.4339C234.141 81.4339 231.521 43.8818 199.234 26.8349C166.943 9.78804 133.344 33.9287 126.797 50.2047C126.781 50.2047 166.682 91.9391 234.141 81.4339ZM182.26 73.6474L182.969 50.4547C187.151 50.8297 191.26 50.2151 194.943 49.1839C197.552 53.8245 202.719 64.3037 204.688 77.5276C196.563 76.7464 189.073 75.3766 182.26 73.6474ZM150.271 61.2255C154.708 52.0901 161.536 45.0016 165.802 41.1422C169.443 45.5537 173.557 48.1266 177.75 49.4235L177.052 72.2151C166.115 69.0068 157.125 64.9547 150.271 61.2255ZM162.74 36.788C158.193 40.8037 150.646 48.4495 145.656 58.5953C138.141 54.0745 134.214 50.5797 134.214 50.5797C142.625 36.5953 158.901 28.8557 158.901 28.8557C160.057 31.887 161.354 34.4912 162.74 36.788ZM205.135 37.0797C205.135 37.0797 192.667 48.762 180.469 43.9078C168.266 39.0485 164.589 27.762 164.589 27.762C188.401 21.9912 205.135 37.0797 205.135 37.0797ZM210.063 77.9495C208.224 64.0537 203.042 52.9703 200 47.4391C205.495 45.2047 209.198 42.5953 209.198 42.5953C224.609 54.9287 227.828 78.0693 227.828 78.0693C221.625 78.3714 215.714 78.2985 210.063 77.9495Z" fill="#201F1F"/>
<mask id="mask0_19_2" style="mask-type:luminance" maskUnits="userSpaceOnUse" x="69" y="26" width="194" height="104">
<path d="M69 26.1631H263V129.788H69V26.1631Z" fill="white"/>
</mask>
<g mask="url(#mask0_19_2)">
<path d="M70.0936 48.3662C73.1353 57.6943 84.6509 60.9026 92.5832 64.6891C101.802 69.0901 116.687 73.5485 121.792 83.2724C127.552 94.2256 122.01 112.7 118.281 122.585C117.057 125.83 119.474 129.288 122.948 129.288H143.469C146.458 129.288 148.771 126.668 148.406 123.7L145.417 99.2724C177.969 105.309 195.458 101.642 195.458 101.642C195.974 109.793 195.047 117.413 194.135 122.569C193.51 126.069 196.177 129.278 199.739 129.278H212.646C216.193 129.278 218.875 126.069 218.25 122.585C217.359 117.606 216.422 110.908 216.818 106.184C217.516 97.7828 255.672 89.3922 262.318 82.387C268.963 75.387 217.349 100.585 163.276 79.0537C109.208 57.5276 117.083 27.3662 94.5051 26.8453C84.828 26.6214 71.5572 30.9703 69.5155 40.6943C69.0364 42.9547 69.1666 45.5172 70.0936 48.3662ZM82.427 39.8766C82.427 37.1735 84.6249 34.9756 87.328 34.9756C90.0364 34.9756 92.2343 37.1735 92.2343 39.8766C92.2343 42.5849 90.0364 44.7828 87.328 44.7828C84.6249 44.7828 82.427 42.5849 82.427 39.8766Z" fill="#201F1F"/>
</g>
</g>
<defs>
<clipPath id="clip0_19_2">
<rect width="332" height="195" fill="white"/>
</clipPath>
</defs>
</svg>
